<?xml version="1.0" standalone="no"?>
<!DOCTYPE svg PUBLIC "-//W3C//DTD SVG 20010904//EN"
 "http://www.w3.org/TR/2001/REC-SVG-20010904/DTD/svg10.dtd">
<svg version="1.0" xmlns="http://www.w3.org/2000/svg"
 width="1152.000000pt" height="1152.000000pt" viewBox="0 0 1152.000000 1152.000000"
 preserveAspectRatio="xMidYMid meet">
<metadata>
Created by potrace 1.11, written by Peter Selinger 2001-2013
</metadata>
<g transform="translate(0.000000,1152.000000) scale(0.100000,-0.100000)"
fill="#000000" stroke="none">
<path d="M553 9845 c0 -8 4 -12 9 -9 5 3 6 10 3 15 -9 13 -12 11 -12 -6z"/>
<path d="M10475 9851 c-3 -5 -2 -12 3 -15 5 -3 9 1 9 9 0 17 -3 19 -12 6z"/>
<path d="M6946 9842 c-3 -5 1 -9 9 -9 8 0 12 4 9 9 -3 4 -7 8 -9 8 -2 0 -6 -4
-9 -8z"/>
<path d="M4556 9358 c3 -5 10 -6 15 -3 13 9 11 12 -6 12 -8 0 -12 -4 -9 -9z"/>
<path d="M1609 9080 c-1 -5 -2 -16 -3 -22 -1 -18 -46 -17 -78 1 -22 12 -29 12
-42 2 -20 -17 -21 -51 -1 -51 22 0 19 -4 -26 -49 -39 -37 -43 -39 -55 -23 -10
13 -17 15 -31 6 -23 -14 -29 -45 -11 -55 12 -6 14 -25 9 -71 -1 -5 -4 -7 -8
-7 -28 4 -33 -4 -33 -51 0 -47 2 -50 25 -50 l25 0 0 -2820 0 -2820 -25 0 c-24
0 -25 -3 -25 -54 0 -49 2 -54 20 -49 23 6 22 10 22 -127 0 -60 -4 -96 -11 -98
-20 -7 -12 -50 11 -58 33 -10 53 22 33 52 -9 15 -15 46 -14 81 l0 58 19 -51
c49 -139 198 -288 325 -327 l40 -12 -45 -5 c-33 -4 -53 -1 -76 12 -30 17 -32
17 -48 -1 -14 -15 -15 -24 -7 -40 11 -20 30 -20 56 0 10 7 83 11 179 10 45 -1
48 -3 44 -23 -4 -22 -2 -23 49 -20 44 3 53 7 53 23 0 15 7 19 33 20 80 1 7413
0 7417 -2 3 -1 10 0 15 1 9 2 321 3 353 1 6 -1 12 -10 12 -21 0 -18 7 -20 54
-20 49 0 54 2 51 20 -3 17 2 20 31 20 20 0 42 -7 50 -15 12 -12 19 -12 34 -2
25 15 26 43 3 57 -17 9 -17 11 0 21 10 6 30 24 45 40 22 25 27 27 34 14 12
-20 47 -19 55 1 3 9 0 28 -8 43 -22 39 -18 65 9 69 21 3 23 8 20 55 -3 44 -6
52 -23 52 -19 0 -20 8 -23 222 l-2 223 25 0 c25 0 26 2 23 53 -3 46 -5 52 -24
49 -17 -2 -20 2 -18 29 1 17 7 36 13 42 6 6 11 21 11 33 0 26 -34 38 -54 19
-12 -12 -20 -8 -56 25 -24 22 -38 40 -32 40 19 0 25 41 9 58 -14 14 -18 14
-39 0 -27 -18 -75 -21 -85 -5 -4 6 -1 7 6 2 10 -5 10 -3 0 13 -10 16 -22 20
-58 18 -39 -1 -46 -4 -49 -23 l-3 -21 -3640 0 -3639 -1 0 25 c0 14 -4 23 -9
20 -5 -4 -15 -4 -23 -1 -11 4 -13 62 -12 303 1 163 3 299 4 302 1 3 1 10 0 15
-7 23 -4 4448 2 4465 5 12 13 17 23 14 12 -5 15 3 15 49 0 50 -2 55 -20 50
-11 -3 -20 -1 -21 3 -5 50 -3 64 9 69 18 7 11 45 -11 59 -14 9 -21 7 -32 -8
-13 -18 -16 -17 -50 20 -32 34 -35 41 -24 61 21 39 -24 71 -56 40 -7 -8 -26
-13 -42 -12 -22 1 -28 6 -26 23 2 19 -3 21 -52 21 -50 0 -55 -2 -55 -22 0 -22
-1 -22 -220 -22 l-220 0 0 22 c0 21 -5 23 -50 23 -27 0 -51 -4 -51 -10z"/>
<path d="M8662 9081 c0 -3 0 -14 -1 -25 -1 -17 -3 -17 -26 -2 -33 22 -52 20
-61 -6 -4 -15 -2 -25 8 -32 13 -7 9 -14 -18 -38 -22 -20 -40 -28 -52 -24 -29
10 -49 -3 -47 -27 4 -37 5 -38 15 -32 6 3 10 -1 10 -9 0 -8 -10 -16 -22 -18
-20 -3 -23 -9 -23 -51 0 -26 3 -53 7 -60 6 -9 8 -9 8 0 0 7 6 10 14 7 11 -4
13 -102 13 -569 0 -413 -3 -563 -11 -558 -8 5 -8 3 0 -8 9 -10 12 -370 11
-1356 l0 -1342 -21 -3 c-17 -3 -20 -11 -21 -50 -1 -27 2 -49 7 -49 4 -1 13 -2
20 -3 18 -2 20 -22 3 -36 -19 -16 -19 -25 1 -44 11 -12 20 -13 34 -6 15 8 25
5 45 -14 22 -20 26 -31 20 -55 -5 -23 -2 -32 14 -40 15 -8 23 -7 35 4 24 25
43 16 37 -17 0 -5 24 -8 54 -8 48 0 55 3 53 18 -3 16 17 17 274 20 l277 2 3
-22 c3 -19 9 -22 54 -22 47 -1 50 0 46 21 -3 16 0 23 12 23 9 0 16 -4 16 -9 0
-18 33 -21 51 -5 15 13 16 21 8 37 -9 16 -6 25 20 50 24 25 33 29 43 19 16
-16 23 -15 43 4 14 15 14 18 0 40 -15 24 -12 50 5 39 13 -8 20 10 24 60 3 41
1 45 -21 45 -22 0 -23 4 -24 63 -1 34 -1 66 0 71 1 5 2 46 1 90 0 45 0 234 0
421 1 187 1 347 1 355 -2 169 -1 233 3 237 3 3 1 16 -4 29 -6 16 -6 24 1 24 6
0 7 4 4 10 -3 5 -6 222 -5 482 0 260 1 482 1 493 0 310 0 940 -1 1020 -1 39 0
75 1 80 1 6 1 14 0 18 -2 9 -3 282 -2 389 1 32 4 57 9 57 27 -4 32 4 32 51 0
43 -3 50 -20 50 -23 0 -26 22 -5 40 11 9 12 17 4 31 -10 20 -44 26 -54 9 -3
-5 -21 5 -39 23 -24 24 -29 34 -20 42 18 14 -1 55 -25 55 -11 0 -21 -4 -23 -9
-7 -19 -33 -16 -33 4 0 17 -7 20 -52 22 -49 3 -53 1 -53 -20 l0 -22 -272 0
-273 1 -3 22 c-3 20 -9 22 -57 21 -30 -1 -54 -5 -53 -8z"/>
<path d="M4795 8811 c-3 -5 -2 -12 3 -15 5 -3 9 1 9 9 0 17 -3 19 -12 6z"/>
<path d="M2635 8721 c-3 -5 -2 -12 3 -15 5 -3 9 1 9 9 0 17 -3 19 -12 6z"/>
<path d="M3916 8718 c3 -5 10 -6 15 -3 13 9 11 12 -6 12 -8 0 -12 -4 -9 -9z"/>
<path d="M5380 8520 c0 -21 -24 -28 -35 -10 -10 16 -45 12 -52 -6 -3 -9 -2
-24 4 -33 7 -12 2 -23 -24 -49 -18 -18 -33 -28 -33 -22 0 6 -12 10 -27 8 -33
-4 -42 -31 -19 -57 17 -19 12 -31 -14 -31 -13 0 -17 -11 -19 -49 -1 -45 1 -50
21 -53 l23 -3 0 -218 c0 -121 -3 -221 -8 -224 -4 -2 -2 -13 3 -24 8 -13 7 -19
0 -19 -7 0 -8 -5 -3 -12 12 -19 11 -82 -2 -90 -6 -5 -6 -8 0 -8 11 0 14 -794
3 -806 -4 -3 -3 -15 3 -25 7 -13 6 -19 -1 -19 -7 0 -8 -5 -3 -12 12 -19 11
-82 -2 -90 -6 -5 -6 -8 0 -8 12 0 14 -1128 2 -1147 -5 -7 -4 -13 0 -13 5 0 8
-29 8 -65 1 -36 -3 -65 -8 -65 -4 0 -5 -5 -1 -12 4 -7 8 -106 9 -220 l0 -208
-22 0 c-21 0 -23 -5 -23 -50 0 -50 7 -58 44 -51 5 1 2 -9 -8 -23 -21 -33 -20
-53 4 -66 14 -7 22 -7 31 3 18 19 70 -41 62 -71 -3 -12 0 -28 6 -36 12 -14 51
-10 51 5 0 5 7 9 15 9 8 0 15 -9 15 -19 0 -24 9 -27 64 -23 37 3 43 7 39 23
-5 18 4 19 275 19 l280 0 -2 -23 c-3 -20 1 -22 48 -21 45 0 51 3 54 22 3 20
32 33 32 14 0 -4 9 -13 21 -20 12 -8 18 -9 15 -4 -3 6 1 12 9 16 16 6 20 41 6
50 -5 4 4 20 21 36 24 25 33 28 49 19 38 -20 68 33 34 61 -19 16 -9 33 16 27
17 -5 19 1 19 49 0 46 -3 54 -18 54 -26 0 -34 11 -21 27 6 7 8 13 3 13 -5 0
-9 198 -9 445 0 290 3 445 10 445 7 0 7 3 0 8 -13 9 -13 145 0 154 6 5 7 8 0
8 -6 0 -10 32 -10 75 0 43 4 75 10 75 6 0 6 3 0 8 -14 10 -14 784 0 794 6 5 6
8 0 8 -6 0 -10 32 -10 75 0 43 4 75 10 75 7 0 7 3 0 8 -13 9 -13 145 0 154 6
5 7 8 0 8 -7 0 -10 158 -10 455 l0 455 22 0 c20 0 22 4 20 53 -2 42 -5 51 -19
49 -23 -4 -31 13 -13 28 8 7 15 23 15 36 0 20 -5 24 -30 24 -16 0 -30 -5 -30
-10 0 -6 -15 4 -34 22 -20 20 -30 37 -25 42 29 32 -11 75 -46 50 -26 -19 -35
-18 -35 7 0 18 -5 20 -52 17 -44 -2 -52 -6 -50 -20 2 -14 -4 -18 -25 -19 -49
0 -477 -1 -505 0 -21 1 -28 6 -28 21 0 17 -7 20 -50 20 -43 0 -50 -3 -50 -20z"/>
<path d="M7506 8398 c3 -5 10 -6 15 -3 13 9 11 12 -6 12 -8 0 -12 -4 -9 -9z"/>
<path d="M4553 8235 c0 -8 4 -12 9 -9 5 3 6 10 3 15 -9 13 -12 11 -12 -6z"/>
<path d="M4393 8085 c0 -8 4 -12 9 -9 5 3 6 10 3 15 -9 13 -12 11 -12 -6z"/>
<path d="M7595 8091 c-3 -5 -2 -12 3 -15 5 -3 9 1 9 9 0 17 -3 19 -12 6z"/>
<path d="M1033 8075 c0 -8 4 -12 9 -9 5 3 6 10 3 15 -9 13 -12 11 -12 -6z"/>
<path d="M10946 8082 c-3 -5 1 -9 9 -9 8 0 12 4 9 9 -3 4 -7 8 -9 8 -2 0 -6
-4 -9 -8z"/>
<path d="M706 7762 c-3 -5 1 -9 9 -9 8 0 12 4 9 9 -3 4 -7 8 -9 8 -2 0 -6 -4
-9 -8z"/>
<path d="M3916 7758 c3 -5 10 -6 15 -3 13 9 11 12 -6 12 -8 0 -12 -4 -9 -9z"/>
<path d="M7026 7443 c-3 -3 -6 -15 -6 -25 0 -22 -13 -23 -30 -3 -7 8 -21 15
-31 15 -21 0 -35 -36 -20 -54 8 -9 2 -21 -23 -45 -21 -21 -36 -29 -40 -22 -12
18 -44 12 -51 -10 -4 -13 0 -27 11 -40 19 -22 16 -29 -15 -32 -20 -1 -21 -6
-18 -52 3 -39 7 -50 20 -49 10 1 18 -3 18 -10 6 -51 6 -62 -3 -73 -5 -6 -5
-14 -1 -16 5 -3 8 -475 8 -1049 l0 -1043 -22 -3 c-19 -3 -22 -9 -20 -43 2 -21
-1 -39 -6 -39 -5 0 -4 -7 3 -15 7 -8 15 -13 19 -11 4 3 13 0 21 -5 13 -8 12
-11 -2 -23 -24 -18 -23 -43 3 -56 15 -8 24 -8 34 0 10 8 21 4 46 -21 20 -20
29 -34 21 -37 -16 -5 -15 -32 2 -54 12 -16 14 -16 34 2 27 25 42 25 42 1 0
-20 31 -29 83 -23 22 3 27 7 22 23 -6 18 2 19 274 19 270 0 281 -1 281 -19 0
-24 10 -27 61 -23 30 3 39 8 39 23 0 10 7 19 15 19 8 0 15 -4 15 -10 0 -5 14
-10 31 -10 30 0 31 2 25 30 -7 40 36 95 64 80 12 -6 23 -5 36 4 16 12 17 17 6
41 -13 29 -9 45 14 45 10 0 14 13 14 50 0 45 -2 50 -22 50 l-23 0 1 247 c1
137 3 253 4 258 1 6 1 12 0 15 -6 16 -5 62 2 66 5 3 5 10 2 16 -5 8 -9 1546
-5 1590 1 4 10 5 21 3 18 -3 20 2 20 51 0 51 -1 54 -25 54 -28 0 -33 15 -9 28
23 13 11 62 -16 62 -10 0 -22 -5 -25 -11 -4 -6 -18 0 -35 18 -22 22 -27 34
-23 59 4 23 1 33 -11 37 -18 7 -46 -1 -46 -12 0 -4 -7 -8 -15 -8 -9 0 -15 9
-15 22 0 19 -5 22 -47 21 -39 -1 -49 -5 -53 -21 -6 -19 -15 -20 -223 -21 -141
-1 -214 3 -210 9 4 6 1 7 -8 1 -16 -10 -76 -15 -101 -8 -10 3 -15 12 -13 23 3
16 -4 19 -44 19 -27 1 -51 -1 -55 -5z"/>
<path d="M4556 7118 c3 -5 10 -6 15 -3 13 9 11 12 -6 12 -8 0 -12 -4 -9 -9z"/>
<path d="M10475 6651 c-3 -5 -2 -12 3 -15 5 -3 9 1 9 9 0 17 -3 19 -12 6z"/>
<path d="M556 6638 c3 -5 10 -6 15 -3 13 9 11 12 -6 12 -8 0 -12 -4 -9 -9z"/>
<path d="M3740 6333 c0 -26 -15 -30 -36 -9 -7 8 -23 12 -35 9 -18 -5 -20 -11
-16 -38 7 -43 -30 -81 -73 -77 -36 4 -59 -28 -35 -48 21 -17 19 -42 -2 -38
-15 2 -19 -6 -21 -49 -3 -47 -1 -53 16 -53 11 0 22 -7 26 -15 3 -8 1 -15 -5
-15 -6 0 -7 -5 -3 -12 10 -17 11 -58 2 -64 -5 -3 -5 -10 -1 -17 10 -16 10 -58
1 -63 -5 -3 -5 -10 -1 -17 3 -6 7 -210 7 -454 l1 -442 -24 -3 c-21 -3 -24 -8
-25 -54 -1 -49 0 -52 22 -48 26 5 28 -7 6 -40 -14 -23 -14 -25 7 -40 15 -10
28 -12 39 -6 13 7 24 2 44 -19 23 -24 26 -32 17 -49 -9 -16 -7 -24 5 -36 19
-20 28 -20 44 -1 13 15 45 22 36 7 -11 -19 14 -36 54 -35 40 1 65 17 54 35 -3
4 122 8 277 8 272 0 281 -1 276 -19 -3 -15 1 -20 22 -23 50 -6 81 2 81 23 0
10 7 19 15 19 8 0 15 -4 15 -10 0 -5 11 -10 25 -10 29 0 43 25 29 48 -14 22
41 75 64 63 21 -11 52 4 52 24 0 7 -7 21 -17 30 -14 14 -14 18 -2 26 8 5 19 9
25 9 8 0 12 19 11 50 0 44 -3 50 -22 50 l-21 0 0 383 c0 252 4 384 11 389 7 5
7 8 -1 8 -7 0 -10 53 -10 160 0 157 0 160 21 160 19 0 22 6 22 50 1 47 -1 50
-24 50 -14 0 -23 3 -21 8 2 4 10 20 18 36 13 25 12 29 -4 42 -14 9 -24 10 -38
3 -15 -8 -24 -5 -46 19 -20 21 -25 34 -18 44 24 39 -28 65 -62 31 -16 -16 -17
-15 -20 11 -3 26 -5 27 -55 24 -43 -2 -51 -6 -49 -20 3 -17 -16 -18 -278 -18
-262 0 -281 1 -278 18 2 14 -7 18 -49 22 -50 5 -53 4 -53 -17z"/>
<path d="M6476 5842 c-3 -5 1 -9 9 -9 8 0 12 4 9 9 -3 4 -7 8 -9 8 -2 0 -6 -4
-9 -8z"/>
<path d="M6475 4891 c-3 -5 -2 -12 3 -15 5 -3 9 1 9 9 0 17 -3 19 -12 6z"/>
<path d="M9833 4885 c0 -8 4 -12 9 -9 5 3 6 10 3 15 -9 13 -12 11 -12 -6z"/>
<path d="M1033 4875 c0 -8 4 -12 9 -9 5 3 6 10 3 15 -9 13 -12 11 -12 -6z"/>
<path d="M3916 4238 c3 -5 10 -6 15 -3 13 9 11 12 -6 12 -8 0 -12 -4 -9 -9z"/>
<path d="M7595 3931 c-3 -5 -2 -12 3 -15 5 -3 9 1 9 9 0 17 -3 19 -12 6z"/>
<path d="M10475 3451 c-3 -5 -2 -12 3 -15 5 -3 9 1 9 9 0 17 -3 19 -12 6z"/>
<path d="M1196 2798 c3 -5 10 -6 15 -3 13 9 11 12 -6 12 -8 0 -12 -4 -9 -9z"/>
<path d="M6955 2331 c-3 -5 -2 -12 3 -15 5 -3 9 1 9 9 0 17 -3 19 -12 6z"/>
<path d="M3753 2315 c0 -8 4 -12 9 -9 5 3 6 10 3 15 -9 13 -12 11 -12 -6z"/>
<path d="M6153 1995 c0 -8 4 -12 9 -9 5 3 6 10 3 15 -9 13 -12 11 -12 -6z"/>
<path d="M5355 1841 c-3 -5 -2 -12 3 -15 5 -3 9 1 9 9 0 17 -3 19 -12 6z"/>
<path d="M4556 1678 c3 -5 10 -6 15 -3 13 9 11 12 -6 12 -8 0 -12 -4 -9 -9z"/>
<path d="M10946 1682 c-3 -5 1 -9 9 -9 8 0 12 4 9 9 -3 4 -7 8 -9 8 -2 0 -6
-4 -9 -8z"/>
</g>
</svg>
